<?xml version="1.0" encoding="UTF-8"?>
<svg id="Layer_1" data-name="Layer 1" xmlns="http://www.w3.org/2000/svg" viewBox="0 0 82.91 82.92">
  <defs>
    <style>
      .cls-1 {
      fill: #2d1863;
      stroke-width: 0px;
      }
    </style>
  </defs>
  <path class="cls-1"
    d="m57.28,66.33c1.52,3.17,3.77,5.36,6.83,6.72,1.15.51,2.32,1.03,3.53,1.39.72.21,1.53.17,2.3.17,3.05.02,4.68,1.64,4.68,4.71,0,.72.02,1.44,0,2.16-.03.87-.55,1.37-1.41,1.43-.23.02-.46,0-.69,0-11.48,0-22.97,0-34.45,0-.17,0-.35,0-.52,0-1-.03-1.62-.58-1.6-1.42.02-.81.62-1.34,1.58-1.34,3.89,0,7.77,0,11.66,0,7.22,0,14.45,0,21.67,0h.99c0-.54.04-1,0-1.45-.08-.8-.55-1.24-1.35-1.31-.29-.02-.58,0-.86,0-18.71,0-37.42,0-56.13,0-2.28,0-2.58.33-2.39,2.76h.9c6.36,0,12.72,0,19.08,0,.29,0,.58-.03.86.02.74.14,1.19.6,1.19,1.36,0,.76-.46,1.22-1.2,1.35-.25.05-.52.02-.78.02-6.97,0-13.93,0-20.9,0-1.58,0-1.98-.4-1.98-1.99,0-.6,0-1.21,0-1.81,0-2.76,1.71-4.51,4.46-4.47,5.14.06,10.81-3.89,12.44-7.44.12-.25.23-.51.39-.85h-1.02c-5.27,0-10.54,0-15.8,0C3.52,66.33,0,62.8,0,57.55c0-13.96,0-27.92,0-41.88,0-4.44,2.91-7.36,7.34-7.37,7.48,0,14.97,0,22.45,0,.26,0,.52-.03.78.02.74.14,1.19.6,1.19,1.36,0,.76-.45,1.22-1.19,1.36-.28.05-.57.02-.86.02-7.46,0-14.91,0-22.37,0-2.88,0-4.57,1.68-4.57,4.54,0,14.02,0,28.04,0,42.05,0,3.58,2.32,5.91,5.87,5.91,22.34,0,44.67,0,67.01,0,2.76,0,4.49-1.71,4.49-4.46,0-4.26,0-8.52,0-12.78,0-.23,0-.46,0-.69.05-.83.59-1.39,1.34-1.41.78-.02,1.39.56,1.41,1.43.03,1.9.01,3.8.01,5.7,0,2.5,0,5.01,0,7.51,0,4.56-2.88,7.46-7.42,7.46-5.7,0-11.4,0-17.1,0h-1.1Zm-35.16,8.23h38.73c-.07-.1-.09-.16-.13-.19-2.87-1.89-4.95-4.42-6.3-7.58-.1-.23-.56-.44-.85-.45-8.08-.02-16.16-.01-24.24-.03-.57,0-.79.21-.99.7-.74,1.83-1.79,3.48-3.19,4.87-.95.94-2,1.78-3.03,2.68Z" />
  <path class="cls-1"
    d="m57.72,49.75c-.59-1.68-2.01-2.71-3.73-2.75-1.27-.03-2.53,0-3.8-.01-1.26,0-1.65-.32-1.86-1.54-.37-2.18-.72-4.37-1.13-6.54-.07-.35-.37-.76-.68-.94-.97-.56-1.99-1.02-3.06-1.56-.93,1.86-1.84,3.68-2.75,5.5-.08.15-.18.3-.23.46-.43,1.47-1.47,1.92-2.92,2.02-3.18.23-6.36.6-9.54.88-.61.05-.95.28-1.25.83-1.22,2.25-3.16,3.44-5.7,3.63-1.15.08-1.72-.47-1.72-1.63,0-3.05,0-6.1,0-9.15,0-1.13.51-1.68,1.64-1.62,3.45.17,6.82-.25,10.18-1.02.62-.14.85-.39.94-.97.32-2.07.68-4.14,1.03-6.21.19-1.13.6-1.48,1.73-1.48,3.08,0,6.15,0,9.35,0,0-1.42,0-2.79,0-4.16,0-.68.02-1.34.71-1.73.69-.39,1.26-.08,1.85.27,1.15.71,2.35,1.34,3.46,2.11.85.59,1.7.67,2.67.53,2.11-.31,4.22-.56,6.33-.82,1.04-.13,1.62-.67,1.55-1.48-.07-.86-.75-1.3-1.85-1.15-1.94.26-3.88.53-5.81.83-.68.11-1.23-.02-1.76-.46-1.9-1.54-3.8-3.08-5.74-4.58-.31-.24-.76-.41-1.15-.42-3.14-.03-6.28-.13-9.41.02-2.03.1-4.03.68-6.05.86-1.37.12-2.02.71-2.42,2.01-.62,2.03-1.45,3.99-2.21,5.98-.24.63-.3,1.22.4,1.55.69.33,1.12-.09,1.46-.67.91-1.54,1.85-3.05,2.74-4.59.42-.73.96-1.08,1.81-1.05,1.18.04,2.36,0,3.54.01,1.07.01,1.56.52,1.59,1.6,0,.35,0,.69,0,1.04,0,.8-.39,1.34-1.18,1.47-.75.12-1.26-.27-1.53-.98-.04-.11-.07-.22-.11-.32-.07-.02-.12-.03-.18-.04-1.25-.24-2.08.17-2.63,1.4-.49,1.1-1.2,2.09-1.84,3.12-1.1,1.75-3.1,2.37-4.87,1.53-1.8-.85-2.59-2.82-1.87-4.81,1.03-2.81,2.06-5.61,3.17-8.39.18-.46.71-1.01,1.16-1.1,3.02-.58,6.06-1.04,9.09-1.54-.99-2.61-.78-5.39-.42-8.1.42-3.2,3.29-5.51,6.51-5.6.95-.03,1.9-.02,2.85,0,.97.02,1.5.54,1.5,1.51.01,3.25.04,6.51-.03,9.76-.02.84-.35,1.66-.49,2.27.73.4,1.52.72,2.17,1.22,1.7,1.29,3.35,2.63,4.99,3.99.46.38.91.51,1.49.42,1.73-.27,3.47-.52,5.21-.74,2.23-.29,4.22,1.18,4.6,3.36.37,2.16-1.02,4.3-3.25,4.66-2.98.48-5.98.81-8.98,1.15-.38.04-.84-.17-1.2-.37-1-.56-1.97-1.17-3.11-1.85,0,.97-.04,1.81.02,2.65.02.21.3.45.52.6,2.22,1.49,4.44,2.99,6.68,4.45.68.44,1.03.98,1.11,1.81.29,3.03.67,6.06.98,9.09.05.53.28.79.74,1.03,2.14,1.12,3.35,2.92,3.71,5.3.24,1.58-.31,2.2-1.9,2.2-2.91,0-5.81,0-8.72,0-1.11,0-1.73-.49-1.76-1.34-.03-.89.63-1.42,1.77-1.42,2.5,0,5,0,7.58,0Zm-21.98-19.34c-.06.32-.12.59-.17.87-.31,1.87-.61,3.74-.94,5.61-.26,1.49-.48,1.68-1.96,1.95-1.66.31-3.32.63-4.99.95v2.69c.14.01.23.03.31.02,3.12-.3,6.24-.59,9.36-.94.28-.03.6-.4.75-.69,1.1-2.15,2.17-4.31,3.25-6.47.67-1.34,1.23-1.53,2.54-.88,1.06.52,2.12,1.03,3.16,1.58,3.01,1.56,2.42.74,3.03,4.19.29,1.63.56,3.26.83,4.87h2.61c0-.16.01-.28,0-.39-.29-2.66-.57-5.32-.89-7.97-.03-.27-.25-.58-.48-.74-2.18-1.49-4.39-2.96-6.59-4.42-.18-.12-.42-.24-.62-.24-3.05-.02-6.1-.01-9.2-.01Zm1.57-22.07c0,1.02-.03,1.94,0,2.86.06,1.38,1.16,2.51,2.51,2.62,1.36.12,2.71-.79,2.9-2.16.15-1.08.03-2.21.03-3.32h-5.46Zm-15.16,38.28c2.72-.88,3.01-3.5,2.58-6.49h-2.58v6.49ZM42.82,2.86c-2.63-.36-4.82.78-5.11,2.61h5.11v-2.61Z" />
  <path class="cls-1"
    d="m51.22,58.04c-6.27,0-12.55,0-18.82,0-.56,0-.89.11-1.2.67-1.58,2.82-5.54,2.8-7.13-.03-.29-.51-.58-.65-1.13-.64-2.45.03-4.89.01-7.34,0-1.14,0-1.79-.53-1.77-1.42.03-.86.65-1.34,1.76-1.34,2.45,0,4.89-.02,7.34.01.59,0,.88-.19,1.18-.71,1.58-2.76,5.54-2.74,7.09.04.31.56.64.67,1.2.67,12.43-.01,24.87,0,37.3,0,.32,0,.64-.03.95.02.75.13,1.19.59,1.2,1.36,0,.76-.45,1.22-1.19,1.36-.28.05-.57.02-.86.02-6.19,0-12.38,0-18.56,0Zm-23.57,0c.74,0,1.36-.62,1.37-1.37,0-.77-.66-1.42-1.43-1.39-.74.03-1.34.67-1.32,1.41.02.74.65,1.35,1.38,1.34Z" />
  <path class="cls-1"
    d="m77.38,38.62c0,3.57,0,7.14,0,10.71,0,1.34-.47,1.8-1.83,1.8-1.58,0-3.17,0-4.75,0-1.2,0-1.71-.49-1.71-1.65,0-7.2,0-14.39,0-21.59,0-1.12.51-1.62,1.65-1.62,1.67-.01,3.34-.01,5.01,0,1.12,0,1.62.51,1.62,1.65,0,3.57,0,7.14,0,10.71Zm-2.8-9.55h-2.67v2.66h2.67v-2.66Zm-2.68,8.19h2.66v-2.66h-2.66v2.66Zm-.01,5.52h2.69v-2.64h-2.69v2.64Zm2.72,2.89h-2.69v2.64h2.69v-2.64Z" />
  <path class="cls-1"
    d="m63.22,8.3c4.14,0,8.28,0,12.43,0,4.31,0,7.26,2.95,7.26,7.27,0,8,0,15.99,0,23.99,0,.23.02.47-.02.69-.14.74-.6,1.19-1.36,1.19-.76,0-1.22-.45-1.36-1.19-.05-.28-.02-.57-.02-.86,0-7.88,0-15.76,0-23.65,0-3.05-1.64-4.68-4.69-4.68-8.34,0-16.68,0-25.03,0-.32,0-.64.03-.95-.04-.69-.17-1.11-.63-1.1-1.35,0-.72.43-1.18,1.12-1.33.28-.06.57-.03.86-.03,4.29,0,8.57,0,12.86,0Z" />
  <path class="cls-1"
    d="m9.7,26.26c-.89,0-1.78.02-2.68,0-.89-.02-1.47-.57-1.49-1.35-.02-.81.58-1.39,1.52-1.4,1.76-.02,3.51-.02,5.27,0,.89,0,1.47.57,1.49,1.35.02.81-.59,1.38-1.52,1.41-.86.02-1.73,0-2.59,0Z" />
  <path class="cls-1"
    d="m9.65,31.79c-.86,0-1.73.02-2.59,0-.94-.02-1.54-.59-1.52-1.4.02-.78.6-1.34,1.49-1.35,1.76-.02,3.51-.02,5.27,0,.94,0,1.54.59,1.52,1.4-.02.78-.6,1.33-1.49,1.35-.89.02-1.78,0-2.68,0Z" />
  <path class="cls-1"
    d="m9.64,37.32c-.86,0-1.73.02-2.59,0-.93-.02-1.53-.6-1.51-1.41.02-.78.6-1.33,1.49-1.34,1.76-.02,3.51-.02,5.27,0,.93,0,1.54.6,1.51,1.41-.02.78-.61,1.32-1.5,1.34-.89.02-1.78,0-2.68,0Z" />
  <path class="cls-1"
    d="m8.95,42.84c-.66,0-1.32.02-1.99,0-.87-.04-1.45-.62-1.43-1.41.02-.75.58-1.32,1.4-1.34,1.35-.03,2.71-.03,4.06,0,.87.02,1.45.62,1.43,1.4-.02.75-.58,1.31-1.41,1.34-.69.03-1.38,0-2.07,0Z" />
  <path class="cls-1"
    d="m8.3,48.36c-.49,0-.98.03-1.47,0-.77-.06-1.29-.64-1.29-1.36,0-.72.52-1.33,1.28-1.37.98-.05,1.96-.05,2.93,0,.77.04,1.29.64,1.3,1.36,0,.72-.52,1.31-1.28,1.37-.49.04-.98,0-1.47,0Z" />
</svg>