<?xml version="1.0" encoding="UTF-8"?>
<svg id="Layer_1" data-name="Layer 1" xmlns="http://www.w3.org/2000/svg" viewBox="0 0 82.92 82.94">
  <defs>
    <style>
      .cls-1 {
      fill: #2d1863;
      stroke-width: 0px;
      }
    </style>
  </defs>
  <path class="cls-1"
    d="m2.76,52.49h77.39v-.93c0-12.84,0-25.69,0-38.53,0-1.6-.38-1.97-1.99-1.97-.72,0-1.44.02-2.16,0-.89-.03-1.41-.58-1.39-1.42.02-.79.53-1.31,1.39-1.33,1.01-.03,2.02-.04,3.02,0,2.09.1,3.78,1.83,3.89,3.92.01.29,0,.58,0,.86,0,16.16,0,32.31,0,48.47,0,3.17-1.61,4.79-4.78,4.79-24.44,0-48.89,0-73.33,0C1.6,66.35,0,64.74,0,61.51,0,45.36,0,29.2,0,13.05c0-3.12,1.63-4.75,4.72-4.75.72,0,1.44-.02,2.16,0,.91.03,1.43.55,1.42,1.39,0,.83-.53,1.34-1.45,1.36-.81.02-1.61,0-2.42,0-1.2.01-1.67.48-1.67,1.68,0,4.43,0,8.87,0,13.3,0,8.44,0,16.88,0,25.31v1.13Zm0,2.83c0,2.09,0,4.11,0,6.12,0,1.82.32,2.14,2.17,2.14,24.35,0,48.7,0,73.05,0,.12,0,.23,0,.35,0,1.41,0,1.83-.43,1.83-1.87,0-1.87,0-3.74,0-5.61,0-.25-.03-.5-.05-.77H2.76Z" />
  <path class="cls-1"
    d="m69.1,13.86H13.82c0,.37,0,.71,0,1.05,0,10.88,0,21.77,0,32.65,0,.29.01.58,0,.86-.06.83-.61,1.35-1.4,1.33-.75-.01-1.27-.51-1.35-1.3-.02-.23,0-.46,0-.69,0-14.37,0-28.73,0-43.1C11.06,1.67,12.71,0,15.69,0c17.19,0,34.37,0,51.56,0,2.93,0,4.62,1.67,4.62,4.59,0,14.45,0,28.91,0,43.36,0,1.23-.42,1.79-1.34,1.82-.77.02-1.32-.45-1.41-1.22-.03-.28-.01-.58-.01-.86,0-10.91,0-21.82,0-32.74v-1.09Zm-55.27-2.86h55.27c0-2.1,0-4.14,0-6.18,0-1.7-.35-2.05-2.08-2.05-17.04,0-34.08,0-51.12,0-.23,0-.46-.01-.69,0-.84.06-1.36.52-1.37,1.36-.03,2.27,0,4.54,0,6.87Z" />
  <path class="cls-1"
    d="m32.64,74.61h17.63c-.74-1.16-1.46-2.28-2.16-3.41-.35-.56-.36-1.15.08-1.68.67-.8,1.81-.65,2.33.38.84,1.64,1.96,3.05,3.35,4.24.33.28.84.44,1.29.5.82.11,1.68,0,2.48.17,1.86.41,3.11,2.03,3.16,3.93.02.86.01,1.73,0,2.59-.02,1.12-.52,1.61-1.66,1.62-1.55.01-3.11,0-4.66,0-10.1,0-20.21,0-30.31,0-1.69,0-2.06-.38-2.06-2.09,0-.69-.01-1.38,0-2.07.06-2.31,1.85-4.26,4.13-4.07,2,.16,3.28-.65,4.35-2.13.6-.84,1.19-1.69,1.72-2.58.53-.87,1.23-1.21,1.98-.84.74.37.99,1.2.49,2.07-.65,1.14-1.4,2.22-2.14,3.38Zm25.32,5.52c.26-1.87.09-2.76-2.3-2.75-9.55.06-19.11.03-28.66.03-.29,0-.58-.02-.86.01-.72.08-1.16.51-1.24,1.22-.05.48-.01.96-.01,1.48h33.07Z" />
  <path class="cls-1"
    d="m37.44,47c-1.16-.02-1.73-.87-1.39-1.94.89-2.73,1.8-5.45,2.71-8.18,1.77-5.31,3.54-10.63,5.31-15.94.44-1.32,1.08-1.82,1.96-1.54.89.29,1.11,1.07.67,2.38-2.66,7.98-5.33,15.96-7.98,23.95-.24.71-.57,1.25-1.29,1.27Z" />
  <path class="cls-1"
    d="m24.29,33.19c2.29,1.91,4.51,3.74,6.7,5.59.3.25.62.55.76.9.25.63.02,1.2-.54,1.58-.61.42-1.19.3-1.73-.15-1.81-1.51-3.62-3.02-5.43-4.53-.88-.74-1.78-1.46-2.65-2.21-.91-.78-.92-1.64-.01-2.4,2.64-2.22,5.29-4.43,7.95-6.63.78-.65,1.61-.62,2.13.03.53.66.41,1.45-.37,2.1-2.07,1.74-4.15,3.47-6.22,5.2-.17.14-.34.3-.58.52Z" />
  <path class="cls-1"
    d="m58.65,33.18c-2.31-1.93-4.54-3.78-6.74-5.65-.31-.27-.71-.67-.71-1.01.01-.48.25-1.07.59-1.39.53-.49,1.18-.3,1.72.16,2.12,1.77,4.24,3.54,6.36,5.31.57.48,1.16.94,1.72,1.44.81.73.82,1.58-.02,2.29-2.7,2.28-5.42,4.54-8.15,6.79-.7.57-1.46.49-1.99-.13-.53-.63-.44-1.43.28-2.04,2.27-1.9,4.55-3.79,6.93-5.78Z" />
  <path class="cls-1"
    d="m41.6,60.82c-.92,0-1.84.02-2.76,0-.9-.02-1.47-.56-1.48-1.35,0-.78.58-1.38,1.45-1.39,1.81-.02,3.63-.02,5.44,0,.89.01,1.46.58,1.47,1.37,0,.84-.56,1.36-1.52,1.38-.86.01-1.73,0-2.59,0Z" />
  <path class="cls-1"
    d="m56.67,8.29c-2.68,0-5.35,0-8.03,0-1.12,0-1.68-.48-1.66-1.41.02-.86.59-1.35,1.64-1.35,5.35,0,10.7,0,16.06,0,1.04,0,1.63.52,1.63,1.37,0,.86-.59,1.39-1.62,1.39-2.68,0-5.35,0-8.03,0Z" />
  <path class="cls-1"
    d="m17.99,8.29c-.75.01-1.38-.6-1.4-1.35-.01-.75.6-1.38,1.35-1.4.75-.01,1.38.6,1.4,1.35.01.75-.61,1.39-1.35,1.4Z" />
  <path class="cls-1"
    d="m23.54,5.54c.75.02,1.36.67,1.33,1.42-.02.75-.67,1.36-1.42,1.33-.75-.02-1.36-.67-1.33-1.42.02-.75.67-1.36,1.42-1.33Z" />
  <path class="cls-1"
    d="m30.4,6.88c.02.75-.6,1.39-1.35,1.41-.75.02-1.39-.6-1.4-1.35-.02-.75.59-1.39,1.35-1.4.75-.02,1.39.59,1.4,1.34Z" />
</svg>