<?xml version="1.0" encoding="UTF-8"?>
<svg id="Layer_1" data-name="Layer 1" xmlns="http://www.w3.org/2000/svg" viewBox="0 0 88.5 82.94">
  <defs>
    <style>
      .cls-1 {
      fill: #2d1863;
      stroke-width: 0px;
      }
    </style>
  </defs>
  <path class="cls-1"
    d="m0,2.76C.85.6,2.5,0,4.72,0c16.5.05,33.01.03,49.51.03,2.97,0,4.32,1.35,4.32,4.33,0,5.96,0,11.93,0,17.89,0,.34,0,.69,0,1.13.38.02.71.05,1.04.05,3.6,0,7.2,0,10.8,0,2.78,0,4.19,1.42,4.2,4.21,0,6.89,0,13.77,0,20.66,0,.34,0,.67,0,1.11.42,0,.73,0,1.04,0,2.97,0,5.93,0,8.9,0,2.47.01,3.96,1.52,3.96,4.01,0,8.5,0,17,0,25.5,0,2.5-1.53,4.02-4.05,4.03-5.04,0-10.08,0-15.12,0-2.54,0-4.03-1.49-4.04-4.02-.01-2.79,0-5.59,0-8.38,0-.31,0-.63,0-1.01h-12.33c.48,1.61.94,3.19,1.45,4.76.05.14.42.24.64.25.89.05,1.79-.02,2.67.11,2.03.3,3.43,1.95,3.49,4,.02.69.02,1.38,0,2.07-.04,1.27-.81,2.09-2.08,2.21-.26.02-.52.01-.78.01-10.89,0-21.78,0-32.66,0-2.18,0-2.89-.7-2.88-2.9,0-.75-.04-1.51.11-2.24.38-1.85,1.94-3.11,3.87-3.25.17-.01.35,0,.52-.01q2.27-.02,2.93-2.22c.27-.91.53-1.82.84-2.88-.39,0-.69,0-.98,0-5.47,0-10.95,0-16.42,0-2.82,0-4.25-1.42-4.25-4.25,0-5.01,0-10.03,0-15.04,0-.34,0-.68,0-1.12-.34-.02-.61-.06-.89-.06-1.35,0-2.71-.07-4.06.01-2.21.14-3.72-.72-4.47-2.84V2.76Zm2.59,11.95v1.02c0,9.65,0,19.3,0,28.95,0,1.53.17,1.7,1.68,1.7,16.68,0,33.35,0,50.03,0,1.43,0,1.66-.23,1.66-1.64,0-9.68,0-19.36,0-29.04v-.99c-.46,0-.8,0-1.14,0-7.29,0-14.57,0-21.86,0-.29,0-.58.02-.86-.02-.66-.08-1.13-.53-1.08-1.14.04-.45.42-.97.79-1.27.26-.21.77-.16,1.16-.16,7.32,0,14.63,0,21.95,0h1.04c0-2.74,0-5.33,0-7.92,0-1.3-.28-1.58-1.57-1.58-4.49,0-8.99,0-13.48,0-12.24,0-24.48,0-36.72,0-1.35,0-1.6.25-1.6,1.61,0,1.9,0,3.8,0,5.7,0,.71,0,1.42,0,2.18.46,0,.8,0,1.14,0,7.29,0,14.57,0,21.86,0,.37,0,.76,0,1.1.12.63.2.91.69.84,1.34-.07.65-.47,1.04-1.12,1.11-.28.03-.58.02-.86.02-7.29,0-14.57,0-21.86,0-.34,0-.67,0-1.1,0Zm9.47,34.26v11.26h53.21c0-.37,0-.68,0-.99,0-1.99-.02-3.97,0-5.96.02-2.39,1.5-3.85,3.9-3.87.91,0,1.82,0,2.78,0,.02-.4.04-.68.04-.96,0-6.91,0-13.82,0-20.73,0-1.45-.25-1.68-1.73-1.68-3.57,0-7.14,0-10.71,0-.31,0-.61.03-1.01.05,0,.41,0,.74,0,1.08,0,5.93,0,11.86,0,17.8,0,1.31-.36,2.43-1.41,3.28-.85.68-1.83.75-2.86.75-13.68,0-27.35,0-41.03,0-.37,0-.74,0-1.19,0Zm55.81,17.14c0,4.21,0,8.41,0,12.62,0,1.28.32,1.61,1.56,1.61,4.98,0,9.97,0,14.95,0,1.18,0,1.52-.37,1.52-1.57,0-8.41,0-16.82,0-25.24,0-1.22-.31-1.54-1.52-1.54-4.98,0-9.97,0-14.95,0-1.29,0-1.56.27-1.56,1.59,0,4.18,0,8.35,0,12.53Zm-55.86-3.19c0,.72,0,1.35,0,1.98,0,1.75.19,1.95,1.91,1.95,8.12,0,16.24,0,24.36,0,.32,0,.64-.02.95.03.65.11,1.01.52,1.05,1.18.05.84-.51,1.36-1.52,1.37-1.44.02-2.88-.02-4.32.03-.26,0-.68.22-.75.43-.5,1.49-.93,3.01-1.41,4.59h19.42c-.39-1.32-.81-2.54-1.1-3.8-.22-.97-.64-1.36-1.68-1.27-1.29.11-2.59.05-3.88.01-.88-.03-1.38-.58-1.34-1.36.03-.74.52-1.17,1.4-1.21.26-.01.52,0,.78,0,6.11,0,12.21,0,18.32,0h1.02v-3.93H12.01Zm46.54,17.39c.29-2.67-.16-3.17-2.72-3.17-9.36,0-18.72,0-28.08,0-.34,0-.7-.01-1.03.05-.69.12-1.18.54-1.27,1.23-.08.61-.02,1.24-.02,1.89h33.13Z" />
  <path class="cls-1"
    d="m24.23,30.57c0,3.05,0,6.1,0,9.15,0,1.77-.82,2.59-2.58,2.59-4.12,0-8.23,0-12.35,0-1.78,0-2.61-.81-2.61-2.57,0-6.13,0-12.26,0-18.39,0-1.74.8-2.52,2.54-2.53,4.17,0,8.35,0,12.52,0,1.67,0,2.47.81,2.48,2.5,0,3.08,0,6.16,0,9.24Zm-14.89-9.11v18.2h12.25v-18.2h-12.25Z" />
  <path class="cls-1"
    d="m40.06,28.96c-2.99,0-5.99,0-8.98,0-2,0-2.74-.76-2.74-2.78,0-1.64,0-3.28,0-4.92,0-1.56.84-2.42,2.38-2.43,6.25,0,12.49,0,18.74,0,1.55,0,2.39.85,2.4,2.41.01,1.76.01,3.51,0,5.27,0,1.59-.84,2.43-2.47,2.44-3.11.02-6.22,0-9.33,0Zm-9.07-7.5v4.83h18.23v-4.83h-18.23Z" />
  <path class="cls-1"
    d="m40.05,36.15c-3.4,0-6.79,0-10.19,0-.79,0-1.37-.28-1.5-1.1-.12-.73.25-1.23.95-1.43.3-.08.63-.07.94-.07,6.56,0,13.12,0,19.68,0,.17,0,.35,0,.52,0,.87.06,1.41.57,1.4,1.33-.01.75-.56,1.25-1.44,1.26-3.45.01-6.91,0-10.36,0Z" />
  <path class="cls-1"
    d="m14.79,8.66c-2.1,0-4.2,0-6.3,0-1.06,0-1.6-.43-1.61-1.25-.01-.83.54-1.33,1.55-1.33,4.23,0,8.46,0,12.68,0,1.01,0,1.58.5,1.57,1.32,0,.82-.55,1.26-1.6,1.27-2.1,0-4.2,0-6.3,0,0,0,0,0,0,0Z" />
  <path class="cls-1"
    d="m45.26,39.72c1.7,0,3.4,0,5.09,0,.95,0,1.51.5,1.5,1.29,0,.78-.57,1.29-1.51,1.3-3.43.01-6.85.01-10.28,0-.93,0-1.51-.54-1.51-1.31,0-.77.58-1.27,1.52-1.27,1.73-.01,3.45,0,5.18,0Z" />
  <path class="cls-1"
    d="m31.21,39.73c.55,0,1.09-.02,1.64,0,.73.04,1.18.43,1.23,1.17.06.74-.34,1.29-1.05,1.34-1.2.09-2.41.09-3.61,0-.71-.05-1.12-.58-1.07-1.32.05-.73.48-1.15,1.22-1.19.54-.03,1.09,0,1.64,0Z" />
  <path class="cls-1"
    d="m37.55,8.66c-.7-.01-1.25-.56-1.25-1.26,0-.73.6-1.33,1.31-1.31.67.02,1.26.61,1.27,1.28,0,.72-.59,1.31-1.32,1.29Z" />
  <path class="cls-1"
    d="m45.27,7.43c-.02.72-.64,1.28-1.38,1.23-.69-.04-1.23-.62-1.2-1.32.02-.68.61-1.26,1.28-1.26.71,0,1.32.63,1.29,1.34Z" />
  <path class="cls-1"
    d="m50.36,6.09c.67-.02,1.27.54,1.31,1.23.04.73-.53,1.33-1.26,1.35-.7.01-1.28-.52-1.32-1.21-.04-.71.56-1.35,1.26-1.37Z" />
  <path class="cls-1"
    d="m78.15,76.41c.02.73-.55,1.33-1.27,1.34-.71.01-1.33-.59-1.33-1.3,0-.68.55-1.24,1.25-1.27.76-.03,1.34.49,1.36,1.23Z" />
</svg>