<?xml version="1.0" encoding="UTF-8"?>
<svg id="Layer_1" data-name="Layer 1" xmlns="http://www.w3.org/2000/svg" viewBox="0 0 100 100">
  <defs>
    <style>
      .cls-1 {
      stroke-width: 0px;
      }
    </style>
  </defs>
  <path class="cls-1"
    d="m64.17,48.77c-5.38,0-9.75,4.37-9.75,9.74v9.73h9.75c5.37,0,9.74-4.37,9.74-9.73s-4.37-9.74-9.74-9.74Z" />
  <path class="cls-1"
    d="m50,0C22.39,0,0,22.39,0,50s22.39,50,50,50,50-22.39,50-50S77.61,0,50,0Zm14.17,75.48h-9.75v12.48h-7.24v-12.48h-9.92c-6.35,0-12.11-3.5-15.05-9.12-2.94-5.63-2.5-12.36,1.13-17.56L50.41,9.97l5.94,4.14-27.08,38.83c-2.11,3.03-2.36,6.8-.65,10.07,1.71,3.28,4.94,5.23,8.63,5.23h9.92v-9.73c0-9.36,7.62-16.98,16.98-16.98s16.99,7.62,16.99,16.98-7.62,16.98-16.98,16.98Z" />
</svg>