<?xml version="1.0" encoding="UTF-8"?>
<svg id="Layer_1" data-name="Layer 1" xmlns="http://www.w3.org/2000/svg" viewBox="0 0 65.25 95.8">
  <defs>
    <style>
      .cls-1 {
      fill: #2d1863;
      stroke-width: 0px;
      }
    </style>
  </defs>
  <path class="cls-1"
    d="m32.56,0c4.03,3.18,6.97,7.09,7.72,12.26.36,2.48.2,5.04.23,7.56,0,.68.15,1.12.77,1.52,1.17.75,1.77,1.91,1.77,3.32,0,2.87-.02,5.74-.01,8.61,0,.7-.25,1.24-.92,1.48-.7.25-1.27,0-1.72-.59-.84-1.11-1.7-2.21-2.57-3.33-3.89,2.98-7.75,3.01-11.68.03-.82,1.05-1.64,2.09-2.45,3.15-.49.64-1.04,1.11-1.9.8-.84-.3-.88-1.02-.87-1.78.02-2.65.04-5.3.03-7.95,0-1.7.7-2.98,2.1-3.94.26-.18.48-.62.49-.95.1-2.46.04-4.93.23-7.38.2-2.52,1.21-4.82,2.56-6.95.45-.7,1.18-.86,1.86-.46.68.39.87,1.09.51,1.85-.7,1.48-1.4,2.95-2.19,4.6h11.09c-.69-1.54-1.13-3.04-1.97-4.26-1.15-1.68-2.54-3.22-3.95-4.7-1.21-1.25-1.27-1.88.11-2.9h.75Zm3.57,28.46c-.44-.77-.86-1.49-1.27-2.22-.63-1.14-.62-2.36.09-3.37.56-.8,1.46-1.37,2.2-2.05.21-.19.57-.39.57-.59.04-1.82.03-3.65.03-5.49h-11.41c0,1.71.03,3.33-.02,4.95-.02.67.13,1.04.81,1.31,1.83.74,3.27,3.28,1.87,5.54-.39.63-.76,1.28-1.13,1.91,1.94,2.45,5.87,2.47,8.24.02Zm3.88.7c.09-.03.17-.06.26-.1,0-1.49.08-2.98-.05-4.45-.04-.45-.61-1.1-1.04-1.19-.49-.11-1.18.18-1.63.51-.53.39-.32,1,.01,1.51.82,1.24,1.63,2.48,2.45,3.72Zm-16.23-.07c.06.03.13.06.19.09.83-1.25,1.71-2.47,2.47-3.76.22-.38.25-1.03.08-1.43-.27-.63-.99-.84-1.59-.59-.46.19-1.07.68-1.1,1.08-.13,1.52-.05,3.07-.05,4.6Z" />
  <path class="cls-1"
    d="m47.9,0c1.49.42,1.1,1.73,1.22,2.77,1.1.26,2.74-.35,2.72,1.52-.02,1.83-1.62,1.16-2.67,1.41-.31,1.01.43,2.76-1.53,2.69-1.79-.06-1.12-1.66-1.38-2.68-1.07-.27-2.78.41-2.68-1.56.09-1.71,1.6-1.14,2.7-1.37.14-.99-.22-2.23,1.06-2.78h.56Z" />
  <path class="cls-1"
    d="m28.08,44.71c0-1.09,0-2.08,0-3.07,0-1.68,0-3.37,0-5.05,0-1.23.45-1.79,1.41-1.78.94.01,1.37.58,1.37,1.82,0,2.31,0,4.62,0,6.92,0,.34,0,.68,0,1.08h2.46c0-.9,0-1.76,0-2.63,0-1.81,0-3.62,0-5.43,0-1.23.45-1.79,1.4-1.78.94.01,1.37.58,1.37,1.82,0,2.31,0,4.62,0,6.92v1.14c1.34,0,2.61.04,3.87-.04.24-.02.52-.47.67-.78,2.99-6.06,5.96-12.13,8.93-18.2,1.54-3.14,3.94-3.96,7.09-2.43,1.77.86,3.53,1.72,5.29,2.58,2.8,1.38,3.7,3.9,2.34,6.7-1.79,3.7-3.61,7.39-5.42,11.08-.15.31-.29.61-.41.87.47.28,1.04.45,1.29.83.26.4.29,1,.3,1.51.15,5.2,1.7,9.98,4.33,14.43.69,1.17,1.11,2.38.72,3.73-.47,1.63-1.5,2.74-3.17,3.09-.67.14-.84.41-.9,1.03-.92,9.12-7.34,16.47-16.27,18.52-1.62.37-3.33.41-5,.53-1.05.08-2.11.01-3.31.01,0,1.32,0,2.55,0,3.78,0,.78.03,1.56-.01,2.34-.05.98-.56,1.5-1.54,1.5-7.23.01-14.47.01-21.7,0-1.03,0-1.55-.53-1.56-1.57-.02-4.27-.03-8.54.03-12.82,0-.49.41-1.23.82-1.4,3.34-1.41,5.98-3.69,8.22-6.46.93-1.15,1.68-2.44,2.53-3.71-6.44-2.36-6.83-8.43-4.84-11.7,2.66-4.38,7.38-4.95,12.48-1.38,2.62-2.49,3.94-5.58,4.29-9.24-.35-.02-.65-.05-.95-.05-9.85,0-19.71,0-29.56,0-.53,0-.94,0-1.06.69-1.1,6.47-1.22,12.9.7,19.25.85,2.8,2.14,5.38,3.95,7.68.53.67.68,1.34.04,2.01-.65.69-1.54.56-2.22-.3-2.42-3.09-4-6.59-4.92-10.39-1.64-6.74-1.37-13.47.04-20.21.26-1.24.6-1.46,2.06-1.49.19,0,.37-.02.68-.04-.25-.78-.42-1.54-.74-2.22-1.29-2.74-1.38-5.48-.58-8.41.87-3.18,1.4-6.45,2.08-9.68.34-1.59,1.38-1.96,2.64-.91,3.35,2.8,6.7,5.6,10.01,8.44.42.36.78.9.97,1.43,1.23,3.49,2.42,7,3.58,10.52.23.69.55.9,1.26.88,1.61-.05,3.23-.02,4.94-.02Zm5.59,48.27c0-1.97,0-3.83,0-5.7,0-1.42.42-1.85,1.82-1.86,1.68-.02,3.37.03,5.05-.03,9.9-.33,17.62-8.15,17.84-18.05.03-1.45.45-1.86,1.92-1.87,2.08-.02,2.69-1.09,1.64-2.89-2.05-3.5-3.52-7.21-4.2-11.22-.22-1.28-.35-2.57-.51-3.84h-19.26c-.06.45-.11.85-.17,1.25-.62,4.23-2.41,7.83-5.74,10.59-1.29,1.07-1.75,1-2.89-.23-1.29-1.39-2.83-2.29-4.8-2-2.57.38-4.45,2.7-4.31,5.2.15,2.63,2.17,4.67,4.8,4.85,1.59.11,2.07.9,1.42,2.39-2.33,5.37-6.08,9.44-11.19,12.26-.54.3-.73.62-.72,1.23.04,1.99.01,3.99.01,5.99,0,1.3,0,2.6,0,3.94h19.28Zm27.17-59.73c.33-.68.64-1.28.93-1.89.68-1.44.38-2.34-1.06-3.05-1.79-.88-3.58-1.75-5.37-2.62-1.62-.78-2.45-.5-3.24,1.1-2.77,5.65-5.53,11.29-8.3,16.94-.14.29-.25.59-.41.97,3.87,0,7.58,0,11.29-.02.25,0,.6-.18.74-.39.32-.48.53-1.04.83-1.65-1.26-.62-2.46-1.21-3.65-1.8-1.04-.52-1.34-1.16-.93-1.98.4-.81,1.11-.98,2.14-.49,1.2.57,2.39,1.16,3.66,1.77.73-1.5,1.42-2.91,2.15-4.38-.8-.4-1.52-.75-2.23-1.11-.93-.48-1.2-1.18-.8-1.97.39-.75,1.08-.93,2-.51.73.33,1.45.69,2.26,1.07Zm-46.1.06c-1.81-1.52-3.5-3.03-5.28-4.42-.1-.08-.37-.12-.51-.12-1.84,0-2.57.85-2.94,2.63-.37,1.81-.74,3.61-1.12,5.5,1.83.12,3.53.24,5.24.34.2.01.45-.05.59-.18,1.32-1.21,2.63-2.45,4.01-3.75Zm1.48,2.43c-1.18,1.1-2.23,2.05-3.25,3.06-.17.17-.28.57-.21.8.47,1.54.98,3.08,1.52,4.6.07.21.35.48.55.49,1.42.04,2.85.02,4.43.02-1.03-3.02-2.01-5.92-3.04-8.96Zm-4.71,8.97c-.51-1.56-.97-2.97-1.45-4.38-.05-.14-.26-.29-.41-.3-1.45-.12-2.89-.22-4.47-.33.55,1.63,1.04,3.13,1.58,4.61.07.18.41.37.63.38,1.3.04,2.61.02,4.11.02Z" />
  <path class="cls-1"
    d="m55.96,13.26c.21-1.09-.34-2.72,1.48-2.7,1.77.02,1.22,1.6,1.39,2.67,1.07.27,2.77-.38,2.71,1.55-.05,1.8-1.65,1.13-2.68,1.38-.27,1.06.41,2.79-1.55,2.69-1.7-.08-1.14-1.61-1.36-2.69-1.02-.25-2.74.41-2.68-1.51.05-1.76,1.62-1.2,2.69-1.39Z" />
  <path class="cls-1"
    d="m12.69,12.59c-.24,1.09.37,2.68-1.42,2.71-1.89.03-1.22-1.63-1.48-2.7-1.02-.27-2.68.45-2.69-1.44,0-1.87,1.65-1.22,2.7-1.49.22-1.06-.37-2.71,1.48-2.67,1.76.04,1.18,1.63,1.41,2.69,1.08.23,2.77-.37,2.68,1.58-.08,1.74-1.61,1.11-2.67,1.32Z" />
  <path class="cls-1"
    d="m47.52,51.83c2.68.01,4.96,2.16,5.05,4.77.04,1.03-.37,1.57-1.23,1.64-.88.07-1.39-.38-1.53-1.37-.2-1.36-.94-2.15-2.09-2.24-1.35-.11-2.35.71-2.59,2.14-.19,1.15-.66,1.59-1.6,1.47-.9-.11-1.27-.74-1.12-1.89.35-2.64,2.48-4.51,5.11-4.5Z" />
  <path class="cls-1"
    d="m24.7,60.67c.76-.03,1.33.54,1.35,1.34.02.82-.5,1.4-1.27,1.42-.76.02-1.35-.56-1.37-1.33-.02-.78.54-1.4,1.29-1.42Z" />
</svg>