<?xml version="1.0" encoding="UTF-8"?>
<svg id="Layer_1" data-name="Layer 1" xmlns="http://www.w3.org/2000/svg" viewBox="0 0 88.52 81.32">
  <defs>
    <style>
      .cls-1 {
      fill: #2d1863;
      stroke-width: 0px;
      }
    </style>
  </defs>
  <path class="cls-1"
    d="m88.52,56.56c-.42.68-1.03.88-1.82.88-4.49-.03-8.99-.01-13.48-.01h-1.01c0,.43,0,.77,0,1.11,0,5.59.01,11.18,0,16.77,0,3.04-1.71,5.26-4.46,5.88-.44.1-.91.12-1.37.12-5.44,0-10.89,0-16.33,0-.17,0-.35,0-.52-.02-.65-.08-1.05-.45-1.12-1.11-.08-.69.24-1.19.91-1.37.32-.09.68-.09,1.03-.09,5.24,0,10.48,0,15.73,0,2.38,0,3.54-1.16,3.55-3.56,0-1.92,0-3.85,0-5.81H24.53c0,.47,0,.95,0,1.42,0,1.58-.01,3.17,0,4.75.02,1.95,1.24,3.18,3.2,3.18,5.33.01,10.66,0,15.99,0,.26,0,.52-.01.78.02.75.09,1.26.62,1.26,1.29,0,.72-.53,1.27-1.35,1.27-5.76,0-11.52.05-17.28-.03-2.77-.04-5.11-2.49-5.16-5.3-.07-3.28-.03-6.57-.03-9.85,0-4.72,0-9.45.01-14.17,0-.55-.12-.92-.63-1.19-1.71-.91-2.8-2.34-3.75-4.02-3.91-6.92-7.92-13.77-11.87-20.66-.3-.53-.59-.73-1.26-.7-1.68.08-3.02-.66-3.86-2.15-.84-1.48-.77-2.99.16-4.41.29-.44.34-.76.15-1.25-1.35-3.49.02-7.35,3.22-9.19,3.21-1.84,7.24-1.07,9.56,1.85.3.38.58.52,1.07.49,1.73-.12,3.1.57,3.97,2.08.89,1.54.76,3.07-.18,4.57-.14.22-.24.62-.14.81,1.09,1.96,2.22,3.89,3.54,5.81,0-.29,0-.58,0-.87,0-5.79-.01-11.58,0-17.37.01-2.83,1.75-5.02,4.43-5.62.5-.11,1.03-.13,1.54-.13C40.68,0,53.44,0,66.2,0c3.63,0,5.99,2.35,6,6.01.02,6.51,0,13.02,0,19.53,0,.34,0,.68,0,1.13h1c4.49,0,8.99.01,13.48-.01.79,0,1.4.19,1.84.86v.86c-.39.71-1.01.9-1.8.9-4.49-.03-8.98-.01-13.46-.01-.33,0-.66,0-1,0v25.56h.98c4.49,0,8.98.02,13.46-.01.79,0,1.4.19,1.82.88v.86Zm-18.97-27.29c-.37,0-.68,0-.99,0-2.71,0-5.42,0-8.12,0-.89,0-1.44-.49-1.47-1.24-.02-.78.54-1.32,1.47-1.34,1.35-.02,2.71,0,4.06,0,1.67,0,3.33,0,5.04,0,.03-.29.06-.52.06-.74,0-6.66.01-13.31,0-19.97,0-2.17-1.23-3.37-3.38-3.37-12.76,0-25.52,0-38.28,0-2.23,0-3.41,1.17-3.41,3.41,0,7.38,0,14.75.01,22.13,0,.46.15.97.38,1.37,2.18,3.83,4.4,7.63,6.57,11.46.27.48.44,1.06.49,1.62.25,2.52.44,5.05.65,7.57.08,1,.18,2.01.22,3.02.05,1.13-.44,2.02-1.42,2.59-1.01.59-2.05.55-3.02-.09-1.26-.83-2.5-1.7-3.84-2.63v13.63h44.98v-9.24c-.36,0-.67,0-.98,0-2.65,0-5.3,0-7.95,0-1.06,0-1.68-.5-1.66-1.32.02-.8.6-1.26,1.62-1.26,2.68,0,5.36,0,8.04,0,.3,0,.61,0,.92,0v-25.56Zm-41.67,10.57c-3.88-6.72-7.86-13.61-11.86-20.54-1.08.62-2.06,1.19-3.09,1.79.76,1.32,1.49,2.55,2.18,3.81.48.87.21,1.69-.61,1.99-.77.27-1.28-.1-1.65-.73-.73-1.23-1.44-2.48-2.19-3.77-1.06.62-2.05,1.19-3.09,1.79,4.01,6.95,7.99,13.84,11.85,20.52,1.09-.62,2.07-1.18,3.1-1.76-.07-.13-.22-.4-.37-.67-2.08-3.62-4.17-7.23-6.25-10.84-.13-.22-.27-.45-.36-.69-.26-.66-.04-1.21.53-1.56.59-.36,1.17-.25,1.63.27.19.21.32.48.46.73,2.09,3.61,4.17,7.23,6.26,10.84.15.27.32.53.36.6,1.06-.61,2.05-1.17,3.1-1.77Zm-11.16-24.6c-.04-1.61-1.35-2.36-2.52-1.7-3.57,2.03-7.13,4.09-10.68,6.16-.91.53-1.15,1.48-.67,2.29.46.8,1.43,1.07,2.32.56,3.57-2.04,7.13-4.08,10.67-6.18.45-.27.7-.89.88-1.13Zm13.16,33.12c-.13-1.7-.27-3.13-.33-4.56-.03-.74-.38-.99-1.04-1.06-.77-.08-1.3.17-1.53.92-.14.49-.24,1-.33,1.51-.18,1.08-.9,1.52-1.93,1.17-.51-.17-1.02-.38-1.55-.49-.8-.17-1.26.2-1.59.95-.33.78.06,1.1.62,1.43.25.14.47.33.71.49,1.05.7,2.08,1.91,3.15,1.94,1.08.03,2.19-1.1,3.29-1.73.05-.03.11-.05.14-.09.18-.21.34-.43.39-.48ZM3.4,16.76c2.8-1.62,5.54-3.21,8.3-4.8-1.65-2.07-4.32-2.54-6.44-1.22-2.04,1.27-2.86,3.83-1.86,6.02Zm24.97,35.73c.63.42,1.15.78,1.68,1.13.08-.06.16-.11.24-.17-.06-.62-.11-1.24-.18-1.96-.63.36-1.12.65-1.74,1Z" />
  <path class="cls-1"
    d="m88.52,23.89c-.42.68-1.03.88-1.82.87-2.5-.04-5,0-7.5-.02-1.06,0-1.69-.5-1.68-1.31,0-.81.61-1.28,1.7-1.28,2.53,0,5.06.02,7.59-.02.77-.01,1.33.24,1.72.88v.86Z" />
  <path class="cls-1"
    d="m88.52,19.39c-.46.63-1.08.84-1.85.83-2.44-.03-4.89-.01-7.33-.01-.23,0-.46,0-.69-.04-.72-.13-1.12-.58-1.13-1.31-.01-.68.53-1.22,1.29-1.23,1.67-.03,3.33-.01,5-.01,1.01,0,2.01.04,3.02-.01.78-.04,1.34.23,1.69.92v.86Z" />
  <path class="cls-1"
    d="m88.52,47.57c-.51.64-1.18.79-1.97.78-2.36-.04-4.72-.01-7.09-.01-.26,0-.52,0-.78-.03-.75-.09-1.16-.56-1.16-1.27,0-.72.43-1.19,1.17-1.26.63-.06,1.27-.03,1.9-.03,2.02,0,4.03.02,6.05-.01.77-.01,1.41.16,1.87.8v1.04Z" />
  <path class="cls-1"
    d="m88.52,52.07c-.45.63-1.07.85-1.85.84-2.47-.03-4.94,0-7.41-.02-.39,0-.92-.03-1.12-.27-.31-.36-.54-.94-.51-1.4.05-.64.61-.91,1.26-.91,1.81,0,3.62,0,5.43,0,.83,0,1.67.04,2.5-.01.78-.05,1.34.22,1.7.91v.86Z" />
  <path class="cls-1"
    d="m47.1,77.66c-2.03.02-3.69-1.62-3.69-3.64,0-1.99,1.62-3.62,3.61-3.63,2.02-.01,3.64,1.56,3.67,3.55.03,2.05-1.56,3.71-3.59,3.72Zm-.05-2.59c.61-.07,1.02-.37,1.03-1.02.02-.64-.34-1.01-.97-1.07-.6-.05-1.13.44-1.1,1.04.03.63.41.97,1.04,1.04Z" />
  <path class="cls-1"
    d="m37.3,26.56c.08-5.49,4.49-9.82,9.91-9.74,5.34.09,9.71,4.56,9.63,9.86-.08,5.48-4.55,9.77-10.07,9.67-5.25-.1-9.56-4.55-9.48-9.8Zm14.64,5.26c3.06-2.84,3.04-7.68,0-10.48-3.14-2.89-8-2.47-10.6.92-2.26,2.95-1.8,7.77.91,9.52,2.37-2.31,6.31-3,9.68.04Zm-7.33,1.49c1.68.63,3.5.61,4.86-.03-1.29-1.2-3.47-1.21-4.86.03Z" />
  <path class="cls-1"
    d="m53.27,57.82v-3.02c-.29-.02-.56-.06-.84-.06-3.66,0-7.32-.01-10.97.01-.35,0-.75.18-1.05.39-.5.35-1.05.57-1.5.17-.35-.32-.62-.89-.65-1.36-.04-.8.67-1.51,1.46-1.71.22-.06.46-.09.68-.09,4.44,0,8.87-.02,13.31,0,1.38,0,2.15.79,2.18,2.15.03,1.32.03,2.65,0,3.97-.03,1.32-.8,2.11-2.11,2.12-7.57.02-15.15.01-22.72,0-.92,0-1.5-.55-1.47-1.32.03-.79.61-1.26,1.64-1.26,6.94,0,13.88,0,20.82,0,.37,0,.74,0,1.22,0Z" />
  <path class="cls-1"
    d="m47.08,40.13c2.16,0,4.32,0,6.48,0,1.56,0,2.32.77,2.34,2.34.02,1.24.02,2.48,0,3.71-.03,1.39-.82,2.22-2.21,2.22-4.4.02-8.81.02-13.21,0-1.43,0-2.24-.85-2.26-2.27-.01-1.27-.02-2.53,0-3.8.02-1.37.83-2.19,2.21-2.2,2.22-.02,4.43,0,6.65,0Zm6.18,2.65h-12.41v2.99h12.41v-2.99Z" />
  <path class="cls-1"
    d="m47.04,5.72c.72,0,1.43-.03,2.15,0,.75.03,1.26.57,1.28,1.25.01.66-.5,1.28-1.23,1.31-1.46.05-2.93.05-4.39,0-.74-.03-1.21-.65-1.18-1.34.03-.7.53-1.16,1.3-1.22.06,0,.11,0,.17,0,.63,0,1.26,0,1.89,0,0,0,0,0,0,0Z" />
  <path class="cls-1"
    d="m47.06,29.26c-2.25,0-4.05-1.8-4.06-4.05,0-2.25,1.79-4.07,4.03-4.09,2.26-.02,4.15,1.85,4.13,4.1-.02,2.23-1.85,4.04-4.09,4.04Zm1.49-4.09c-.02-.79-.72-1.46-1.52-1.45-.82.01-1.45.68-1.44,1.5.01.83.66,1.46,1.49,1.44.81-.01,1.48-.7,1.46-1.5Z" />
</svg>